<svg id="Layer_1" data-name="Layer 1" xmlns="http://www.w3.org/2000/svg" viewBox="0 0 227.5 207.3"><defs><style>.cls-1{fill:none;stroke:#000;stroke-miterlimit:10;}.cls-2{fill-rule:evenodd;}</style></defs><polygon class="cls-1" points="226.2 97.2 201 106.1 185.7 111.5 169.6 103.8 149.4 94.1 147 93 109.9 75.2 109.9 75.2 86 63.8 71.5 56.9 112 42.6 150.4 60.9 156.3 63.8 157.3 64.3 187.5 78.7 198.6 84 219.7 94.1 226.2 97.2"/><polygon class="cls-2" points="226.2 97.2 201 106.1 185.7 111.5 169.6 103.8 149.4 94.1 147 93 109.9 75.2 109.9 75.2 86 63.8 71.5 56.9 112 42.6 150.4 60.9 156.3 63.8 157.3 64.3 187.5 78.7 198.6 84 219.7 94.1 226.2 97.2"/><path class="cls-1" d="M518,371.7l-18.7,6.6-7.4,2.6-40.5,14.3-26.6,9.4-13.9,4.9L433,420l16.7,8,40.4-14.3,12.5-4.4,13.5-4.7,14.5-5.1,8.4-3,2.8-1Z" transform="translate(-378.1 -371.2)"/><path class="cls-2" d="M518,371.7l-18.7,6.6-7.4,2.6-40.5,14.3-26.6,9.4-13.9,4.9L433,420l16.7,8,40.4-14.3,12.5-4.4,13.5-4.7,14.5-5.1,8.4-3,2.8-1Z" transform="translate(-378.1 -371.2)"/><path class="cls-1" d="M570.4,518.1c-.9,2.1-2,4.3-3.1,6.3a102.5,102.5,0,0,1-13.2,19.2L523.7,529h-.1l-.5-.3-9-4.3-29.2-13.9-33.6-16.1-5.1-2.5-37.1-17.7-2.6-1.3-16-7.6-11.8-5.7c.4-2.4.9-4.7,1.5-7.1a101.9,101.9,0,0,1,6.1-17.6c.6-1.3,1.3-2.7,2-4l8.4,4,14.1,6.8,3.3,1.6L449.2,460l10.9,5.3,26.2,12.5,34.6,16.6,4.1,2,16.4,7.8,22.3,10.7Z" transform="translate(-378.1 -371.2)"/><path class="cls-2" d="M570.4,518.1c-.9,2.1-2,4.3-3.1,6.3a102.5,102.5,0,0,1-13.2,19.2L523.7,529h-.1l-.5-.3-9-4.3-29.2-13.9-33.6-16.1-5.1-2.5-37.1-17.7-2.6-1.3-16-7.6-11.8-5.7c.4-2.4.9-4.7,1.5-7.1a101.9,101.9,0,0,1,6.1-17.6c.6-1.3,1.3-2.7,2-4l8.4,4,14.1,6.8,3.3,1.6L449.2,460l10.9,5.3,26.2,12.5,34.6,16.6,4.1,2,16.4,7.8,22.3,10.7Z" transform="translate(-378.1 -371.2)"/><path class="cls-1" d="M528.1,564.8a101.3,101.3,0,0,1-43.2,13h0a101.8,101.8,0,0,1-59-14.3,113.1,113.1,0,0,1-12.2-8.7c-2.4-2-4.7-4.1-7-6.4a104.1,104.1,0,0,1-7.1-7.8q-2.2-2.9-4.2-5.7h0a95,95,0,0,1-6.4-10.5h37.5c1.7,1.7,3.4,3.3,5.2,4.8a70,70,0,0,0,44.5,16.5,63.4,63.4,0,0,0,10.7-.6l20.3,9.7Z" transform="translate(-378.1 -371.2)"/><path class="cls-2" d="M528.1,564.8a101.3,101.3,0,0,1-43.2,13h0a101.8,101.8,0,0,1-59-14.3,113.1,113.1,0,0,1-12.2-8.7c-2.4-2-4.7-4.1-7-6.4a104.1,104.1,0,0,1-7.1-7.8q-2.2-2.9-4.2-5.7h0a95,95,0,0,1-6.4-10.5h37.5c1.7,1.7,3.4,3.3,5.2,4.8a70,70,0,0,0,44.5,16.5,63.4,63.4,0,0,0,10.7-.6l20.3,9.7Z" transform="translate(-378.1 -371.2)"/></svg>