<svg id="Layer_1" data-name="Layer 1" xmlns="http://www.w3.org/2000/svg" xmlns:xlink="http://www.w3.org/1999/xlink" viewBox="0 0 240.6 214.8"><defs><style>.cls-1,.cls-2,.cls-3,.cls-4,.cls-5{fill:none;stroke-miterlimit:10;stroke-width:8px;}.cls-1{fill-rule:evenodd;stroke:url(#linear-gradient);}.cls-2{stroke:url(#linear-gradient-2);}.cls-3{stroke:url(#linear-gradient-3);}.cls-4{stroke:url(#linear-gradient-4);}.cls-5{stroke:url(#linear-gradient-5);}</style><linearGradient id="linear-gradient" x1="613.91" y1="397.9" x2="613.91" y2="397.9" gradientUnits="userSpaceOnUse"><stop offset="0" stop-color="#04002a"/><stop offset="1"/></linearGradient><linearGradient id="linear-gradient-2" x1="65.02" y1="81.08" x2="240.55" y2="81.08" xlink:href="#linear-gradient"/><linearGradient id="linear-gradient-3" x1="400.5" y1="399.73" x2="549.12" y2="399.73" xlink:href="#linear-gradient"/><linearGradient id="linear-gradient-4" x1="374.21" y1="487.06" x2="575.64" y2="487.06" xlink:href="#linear-gradient"/><linearGradient id="linear-gradient-5" x1="382.3" y1="551.21" x2="536.72" y2="551.21" xlink:href="#linear-gradient"/></defs><path class="cls-1" d="M613.9,397.9" transform="translate(-374.2 -367.1)"/><polygon class="cls-2" points="230.1 101.3 204.9 110.2 189.6 115.5 173.5 107.8 153.3 98.2 150.9 97 113.8 79.2 113.8 79.2 89.9 67.8 75.5 60.9 115.9 46.6 154.3 65 160.2 67.8 161.2 68.3 191.4 82.7 202.5 88.1 223.6 98.2 230.1 101.3"/><path class="cls-3" d="M518,371.7l-18.7,6.6-7.4,2.6-40.5,14.3-26.6,9.4-13.9,4.9L433,420l16.7,8,40.4-14.3,12.5-4.4,13.5-4.7,14.5-5.1,8.4-3,2.8-1Z" transform="translate(-374.2 -367.1)"/><path class="cls-4" d="M570.4,518.1c-.9,2.1-2,4.3-3.1,6.3a102.5,102.5,0,0,1-13.2,19.2L523.7,529h-.1l-.5-.3-9-4.3-29.2-13.9-33.6-16.1-5.1-2.5-37.1-17.7-2.6-1.3-16-7.6-11.8-5.7c.4-2.4.9-4.7,1.5-7.1a101.9,101.9,0,0,1,6.1-17.6c.6-1.3,1.3-2.7,2-4l8.4,4,14.1,6.8,3.3,1.6L449.2,460l10.9,5.3,26.2,12.5,34.6,16.6,4.1,2,16.4,7.8,22.3,10.7Z" transform="translate(-374.2 -367.1)"/><path class="cls-5" d="M528.1,564.8a101.3,101.3,0,0,1-43.2,13h0a101.8,101.8,0,0,1-59-14.3,113.1,113.1,0,0,1-12.2-8.7c-2.4-2-4.7-4.1-7-6.4a104.1,104.1,0,0,1-7.1-7.8q-2.2-2.9-4.2-5.7h0a95,95,0,0,1-6.4-10.5h37.5c1.7,1.7,3.4,3.3,5.2,4.8a70,70,0,0,0,44.5,16.5,63.4,63.4,0,0,0,10.7-.6l20.3,9.7Z" transform="translate(-374.2 -367.1)"/></svg>