<svg id="Layer_1" data-name="Layer 1" xmlns="http://www.w3.org/2000/svg" viewBox="0 0 435.5 419.9"><defs><style>.cls-1{font-size:48px;font-family:Roboto-Black, Roboto;font-weight:800;letter-spacing:0.2em;}.cls-2{letter-spacing:0.21em;}.cls-3{stroke:#000;stroke-miterlimit:10;}</style></defs><text class="cls-1" transform="translate(0 406.9)">Mars Se<tspan class="cls-2" x="245.7" y="0">r</tspan><tspan x="273.9" y="0">vices</tspan></text><polygon class="cls-3" points="277.6 94.4 277.6 235.2 253.9 235.2 253.9 118.5 194 178.4 193.1 178.4 133.2 118.5 133.2 176.2 133.2 178.4 133.2 235.2 108.6 235.2 108.6 94.4 141.3 94.4 193.6 146.7 245.9 94.4 277.6 94.4"/><path d="M528.5,363.1c-2.3,2.9-4.6,4.6-9.6,7.6-25.1,15-37.6,22.4-43,18.7s-3.4-20.2,1.5-43.4c2.8-13.6,5.2-16.6,6.8-18.6a28.4,28.4,0,1,1,44.3,35.7Z" transform="translate(-305.2 -316.8)"/></svg>